<svg xmlns="http://www.w3.org/2000/svg" xmlns:xlink="http://www.w3.org/1999/xlink" width="500" zoomAndPan="magnify" viewBox="0 0 375 374.999991" height="500" preserveAspectRatio="xMidYMid meet" version="1.0"><defs><clipPath id="id1"><path d="M 79 64 L 198 64 L 198 182 L 79 182 Z M 79 64 " clip-rule="nonzero"/></clipPath><clipPath id="id2"><path d="M 197.359375 72.441406 L 88.113281 181.691406 L 79.625 173.207031 L 188.875 63.957031 Z M 197.359375 72.441406 " clip-rule="nonzero"/></clipPath><clipPath id="id3"><path d="M 180 193 L 299 193 L 299 312 L 180 312 Z M 180 193 " clip-rule="nonzero"/></clipPath><clipPath id="id4"><path d="M 298.46875 202.382812 L 189.21875 311.628906 L 180.734375 303.144531 L 289.984375 193.898438 Z M 298.46875 202.382812 " clip-rule="nonzero"/></clipPath><clipPath id="id5"><path d="M 65 179 L 184 179 L 184 298 L 65 298 Z M 65 179 " clip-rule="nonzero"/></clipPath><clipPath id="id6"><path d="M 74.402344 179.433594 L 183.648438 288.679688 L 175.164062 297.164062 L 65.914062 187.917969 Z M 74.402344 179.433594 " clip-rule="nonzero"/></clipPath><clipPath id="id7"><path d="M 194 78 L 313 78 L 313 197 L 194 197 Z M 194 78 " clip-rule="nonzero"/></clipPath><clipPath id="id8"><path d="M 203.003906 78.203125 L 312.78125 187.980469 L 304.296875 196.46875 L 194.519531 86.6875 Z M 203.003906 78.203125 " clip-rule="nonzero"/></clipPath><clipPath id="id9"><path d="M 93 178 L 184 178 L 184 269 L 93 269 Z M 93 178 " clip-rule="nonzero"/></clipPath><clipPath id="id10"><path d="M 102.449219 178.753906 L 183.589844 259.894531 L 175.105469 268.382812 L 93.964844 187.242188 Z M 102.449219 178.753906 " clip-rule="nonzero"/></clipPath><clipPath id="id11"><path d="M 194 107 L 285 107 L 285 197 L 194 197 Z M 194 107 " clip-rule="nonzero"/></clipPath><clipPath id="id12"><path d="M 203.195312 107.117188 L 284.335938 188.257812 L 275.851562 196.742188 L 194.710938 115.601562 Z M 203.195312 107.117188 " clip-rule="nonzero"/></clipPath><clipPath id="id13"><path d="M 108 92 L 198 92 L 198 182 L 108 182 Z M 108 92 " clip-rule="nonzero"/></clipPath><clipPath id="id14"><path d="M 197.179688 101.101562 L 117.097656 181.179688 L 108.613281 172.695312 L 188.695312 92.613281 Z M 197.179688 101.101562 " clip-rule="nonzero"/></clipPath><clipPath id="id15"><path d="M 181 194 L 270 194 L 270 283 L 181 283 Z M 181 194 " clip-rule="nonzero"/></clipPath><clipPath id="id16"><path d="M 269.160156 203.308594 L 189.613281 282.859375 L 181.128906 274.375 L 260.675781 194.824219 Z M 269.160156 203.308594 " clip-rule="nonzero"/></clipPath><clipPath id="id17"><path d="M 137 122 L 197 122 L 197 182 L 137 182 Z M 137 122 " clip-rule="nonzero"/></clipPath><clipPath id="id18"><path d="M 196.621094 130.765625 L 145.710938 181.675781 L 137.222656 173.191406 L 188.136719 122.28125 Z M 196.621094 130.765625 " clip-rule="nonzero"/></clipPath><clipPath id="id19"><path d="M 180 194 L 241 194 L 241 255 L 180 255 Z M 180 194 " clip-rule="nonzero"/></clipPath><clipPath id="id20"><path d="M 240.371094 203.144531 L 189.460938 254.054688 L 180.972656 245.570312 L 231.886719 194.65625 Z M 240.371094 203.144531 " clip-rule="nonzero"/></clipPath><clipPath id="id21"><path d="M 123 178 L 185 178 L 185 240 L 123 240 Z M 123 178 " clip-rule="nonzero"/></clipPath><clipPath id="id22"><path d="M 131.527344 178.785156 L 184.03125 231.285156 L 175.546875 239.769531 L 123.042969 187.269531 Z M 131.527344 178.785156 " clip-rule="nonzero"/></clipPath><clipPath id="id23"><path d="M 193 136 L 255 136 L 255 198 L 193 198 Z M 193 136 " clip-rule="nonzero"/></clipPath><clipPath id="id24"><path d="M 202.167969 136.3125 L 254.671875 188.816406 L 246.183594 197.300781 L 193.683594 144.796875 Z M 202.167969 136.3125 " clip-rule="nonzero"/></clipPath><clipPath id="id25"><path d="M 169 150 L 197 150 L 197 178 L 169 178 Z M 169 150 " clip-rule="nonzero"/></clipPath><clipPath id="id26"><path d="M 196.171875 159.164062 L 178.140625 177.195312 L 169.652344 168.710938 L 187.683594 150.679688 Z M 196.171875 159.164062 " clip-rule="nonzero"/></clipPath><clipPath id="id27"><path d="M 181 198 L 208 198 L 208 226 L 181 226 Z M 181 198 " clip-rule="nonzero"/></clipPath><clipPath id="id28"><path d="M 207.574219 207.035156 L 189.542969 225.066406 L 181.058594 216.582031 L 199.089844 198.550781 Z M 207.574219 207.035156 " clip-rule="nonzero"/></clipPath><clipPath id="id29"><path d="M 151 178 L 179 178 L 179 207 L 151 207 Z M 151 178 " clip-rule="nonzero"/></clipPath><clipPath id="id30"><path d="M 159.707031 178.554688 L 178.796875 197.648438 L 170.3125 206.132812 L 151.21875 187.042969 Z M 159.707031 178.554688 " clip-rule="nonzero"/></clipPath><clipPath id="id31"><path d="M 198 169 L 226 169 L 226 198 L 198 198 Z M 198 169 " clip-rule="nonzero"/></clipPath><clipPath id="id32"><path d="M 206.5 169.496094 L 225.589844 188.585938 L 217.105469 197.074219 L 198.011719 177.980469 Z M 206.5 169.496094 " clip-rule="nonzero"/></clipPath><clipPath id="id33"><path d="M 195 3 L 258 3 L 258 67 L 195 67 Z M 195 3 " clip-rule="nonzero"/></clipPath><clipPath id="id34"><path d="M 257.640625 12.15625 L 203.546875 66.25 L 195.0625 57.765625 L 249.15625 3.671875 Z M 257.640625 12.15625 " clip-rule="nonzero"/></clipPath><clipPath id="id35"><path d="M 209 17 L 272 17 L 272 81 L 209 81 Z M 209 17 " clip-rule="nonzero"/></clipPath><clipPath id="id36"><path d="M 271.882812 26.394531 L 217.789062 80.488281 L 209.300781 72.003906 L 263.394531 17.910156 Z M 271.882812 26.394531 " clip-rule="nonzero"/></clipPath><clipPath id="id37"><path d="M 223 32 L 287 32 L 287 96 L 223 96 Z M 223 32 " clip-rule="nonzero"/></clipPath><clipPath id="id38"><path d="M 286.433594 40.949219 L 232.339844 95.042969 L 223.855469 86.558594 L 277.949219 32.464844 Z M 286.433594 40.949219 " clip-rule="nonzero"/></clipPath><clipPath id="id39"><path d="M 237 46 L 301 46 L 301 110 L 237 110 Z M 237 46 " clip-rule="nonzero"/></clipPath><clipPath id="id40"><path d="M 300.296875 55.035156 L 246.203125 109.128906 L 237.71875 100.640625 L 291.8125 46.546875 Z M 300.296875 55.035156 " clip-rule="nonzero"/></clipPath><clipPath id="id41"><path d="M 121 308 L 184 308 L 184 372 L 121 372 Z M 121 308 " clip-rule="nonzero"/></clipPath><clipPath id="id42"><path d="M 121.046875 362.835938 L 175.140625 308.742188 L 183.625 317.226562 L 129.53125 371.320312 Z M 121.046875 362.835938 " clip-rule="nonzero"/></clipPath><clipPath id="id43"><path d="M 106 294 L 170 294 L 170 358 L 106 358 Z M 106 294 " clip-rule="nonzero"/></clipPath><clipPath id="id44"><path d="M 106.804688 348.59375 L 160.898438 294.5 L 169.382812 302.984375 L 115.292969 357.078125 Z M 106.804688 348.59375 " clip-rule="nonzero"/></clipPath><clipPath id="id45"><path d="M 92 279 L 155 279 L 155 343 L 92 343 Z M 92 279 " clip-rule="nonzero"/></clipPath><clipPath id="id46"><path d="M 92.253906 334.042969 L 146.347656 279.949219 L 154.832031 288.433594 L 100.738281 342.527344 Z M 92.253906 334.042969 " clip-rule="nonzero"/></clipPath><clipPath id="id47"><path d="M 77 265 L 141 265 L 141 329 L 77 329 Z M 77 265 " clip-rule="nonzero"/></clipPath><clipPath id="id48"><path d="M 77.949219 319.957031 L 132.042969 265.863281 L 140.527344 274.347656 L 86.433594 328.441406 Z M 77.949219 319.957031 " clip-rule="nonzero"/></clipPath><clipPath id="id49"><path d="M 310 193 L 374 193 L 374 256 L 310 256 Z M 310 193 " clip-rule="nonzero"/></clipPath><clipPath id="id50"><path d="M 364.683594 255.792969 L 310.589844 201.699219 L 319.074219 193.214844 L 373.167969 247.308594 Z M 364.683594 255.792969 " clip-rule="nonzero"/></clipPath><clipPath id="id51"><path d="M 296 207 L 359 207 L 359 271 L 296 271 Z M 296 207 " clip-rule="nonzero"/></clipPath><clipPath id="id52"><path d="M 350.441406 270.03125 L 296.347656 215.9375 L 304.835938 207.453125 L 358.929688 261.546875 Z M 350.441406 270.03125 " clip-rule="nonzero"/></clipPath><clipPath id="id53"><path d="M 281 222 L 345 222 L 345 285 L 281 285 Z M 281 222 " clip-rule="nonzero"/></clipPath><clipPath id="id54"><path d="M 335.890625 284.585938 L 281.796875 230.492188 L 290.28125 222.007812 L 344.375 276.101562 Z M 335.890625 284.585938 " clip-rule="nonzero"/></clipPath><clipPath id="id55"><path d="M 267 236 L 331 236 L 331 299 L 267 299 Z M 267 236 " clip-rule="nonzero"/></clipPath><clipPath id="id56"><path d="M 321.585938 298.671875 L 267.492188 244.578125 L 275.976562 236.089844 L 330.070312 290.183594 Z M 321.585938 298.671875 " clip-rule="nonzero"/></clipPath><clipPath id="id57"><path d="M 5 119 L 69 119 L 69 182 L 5 182 Z M 5 119 " clip-rule="nonzero"/></clipPath><clipPath id="id58"><path d="M 14.003906 119.195312 L 68.097656 173.289062 L 59.613281 181.777344 L 5.519531 127.683594 Z M 14.003906 119.195312 " clip-rule="nonzero"/></clipPath><clipPath id="id59"><path d="M 19 104 L 83 104 L 83 168 L 19 168 Z M 19 104 " clip-rule="nonzero"/></clipPath><clipPath id="id60"><path d="M 28.246094 104.957031 L 82.339844 159.050781 L 73.851562 167.535156 L 19.757812 113.441406 Z M 28.246094 104.957031 " clip-rule="nonzero"/></clipPath><clipPath id="id61"><path d="M 34 90 L 97 90 L 97 153 L 34 153 Z M 34 90 " clip-rule="nonzero"/></clipPath><clipPath id="id62"><path d="M 42.796875 90.40625 L 96.890625 144.5 L 88.40625 152.984375 L 34.3125 98.890625 Z M 42.796875 90.40625 " clip-rule="nonzero"/></clipPath><clipPath id="id63"><path d="M 48 76 L 111 76 L 111 139 L 48 139 Z M 48 76 " clip-rule="nonzero"/></clipPath><clipPath id="id64"><path d="M 56.660156 76.320312 L 110.753906 130.414062 L 102.269531 138.898438 L 48.175781 84.804688 Z M 56.660156 76.320312 " clip-rule="nonzero"/></clipPath></defs><g clip-path="url(#id1)"><g clip-path="url(#id2)"><path fill="#46bd87" d="M 197.316406 72.484375 L 88.152344 181.648438 L 79.667969 173.164062 L 188.832031 64 L 197.316406 72.484375 " fill-opacity="1" fill-rule="nonzero"/></g></g><g clip-path="url(#id3)"><g clip-path="url(#id4)"><path fill="#46bd87" d="M 298.425781 202.421875 L 189.261719 311.589844 L 180.777344 303.101562 L 289.941406 193.9375 L 298.425781 202.421875 " fill-opacity="1" fill-rule="nonzero"/></g></g><g clip-path="url(#id5)"><g clip-path="url(#id6)"><path fill="#46bd87" d="M 74.441406 179.472656 L 183.609375 288.640625 L 175.121094 297.125 L 65.957031 187.957031 L 74.441406 179.472656 " fill-opacity="1" fill-rule="nonzero"/></g></g><g clip-path="url(#id7)"><g clip-path="url(#id8)"><path fill="#46bd87" d="M 203.042969 78.242188 L 312.746094 187.945312 L 304.257812 196.429688 L 194.558594 86.726562 L 203.042969 78.242188 " fill-opacity="1" fill-rule="nonzero"/></g></g><g clip-path="url(#id9)"><g clip-path="url(#id10)"><path fill="#46bd87" d="M 102.480469 178.785156 L 183.5625 259.867188 L 175.074219 268.351562 L 93.996094 187.269531 L 102.480469 178.785156 " fill-opacity="1" fill-rule="nonzero"/></g></g><g clip-path="url(#id11)"><g clip-path="url(#id12)"><path fill="#46bd87" d="M 203.226562 107.148438 L 284.304688 188.226562 L 275.820312 196.710938 L 194.738281 115.632812 L 203.226562 107.148438 " fill-opacity="1" fill-rule="nonzero"/></g></g><g clip-path="url(#id13)"><g clip-path="url(#id14)"><path fill="#46bd87" d="M 197.148438 101.128906 L 117.128906 181.152344 L 108.640625 172.667969 L 188.664062 92.644531 L 197.148438 101.128906 " fill-opacity="1" fill-rule="nonzero"/></g></g><g clip-path="url(#id15)"><g clip-path="url(#id16)"><path fill="#46bd87" d="M 269.132812 203.335938 L 189.640625 282.832031 L 181.15625 274.34375 L 260.648438 194.851562 L 269.132812 203.335938 " fill-opacity="1" fill-rule="nonzero"/></g></g><g clip-path="url(#id17)"><g clip-path="url(#id18)"><path fill="#46bd87" d="M 196.601562 130.78125 L 145.726562 181.660156 L 137.242188 173.171875 L 188.117188 122.296875 L 196.601562 130.78125 " fill-opacity="1" fill-rule="nonzero"/></g></g><g clip-path="url(#id19)"><g clip-path="url(#id20)"><path fill="#46bd87" d="M 240.351562 203.160156 L 189.476562 254.035156 L 180.992188 245.550781 L 231.867188 194.675781 L 240.351562 203.160156 " fill-opacity="1" fill-rule="nonzero"/></g></g><g clip-path="url(#id21)"><g clip-path="url(#id22)"><path fill="#46bd87" d="M 131.546875 178.804688 L 184.011719 231.265625 L 175.527344 239.75 L 123.0625 187.289062 L 131.546875 178.804688 " fill-opacity="1" fill-rule="nonzero"/></g></g><g clip-path="url(#id23)"><g clip-path="url(#id24)"><path fill="#46bd87" d="M 202.1875 136.332031 L 254.652344 188.796875 L 246.164062 197.28125 L 193.699219 144.816406 L 202.1875 136.332031 " fill-opacity="1" fill-rule="nonzero"/></g></g><g clip-path="url(#id25)"><g clip-path="url(#id26)"><path fill="#46bd87" d="M 196.164062 159.167969 L 178.144531 177.191406 L 169.660156 168.703125 L 187.679688 150.683594 L 196.164062 159.167969 " fill-opacity="1" fill-rule="nonzero"/></g></g><g clip-path="url(#id27)"><g clip-path="url(#id28)"><path fill="#46bd87" d="M 207.570312 207.039062 L 189.546875 225.0625 L 181.0625 216.574219 L 199.082031 198.554688 L 207.570312 207.039062 " fill-opacity="1" fill-rule="nonzero"/></g></g><g clip-path="url(#id29)"><g clip-path="url(#id30)"><path fill="#46bd87" d="M 159.710938 178.558594 L 178.792969 197.644531 L 170.308594 206.128906 L 151.222656 187.046875 L 159.710938 178.558594 " fill-opacity="1" fill-rule="nonzero"/></g></g><g clip-path="url(#id31)"><g clip-path="url(#id32)"><path fill="#46bd87" d="M 206.503906 169.5 L 225.585938 188.582031 L 217.101562 197.066406 L 198.019531 177.984375 L 206.503906 169.5 " fill-opacity="1" fill-rule="nonzero"/></g></g><g clip-path="url(#id33)"><g clip-path="url(#id34)"><path fill="#46bd87" d="M 257.625 12.175781 L 203.566406 66.234375 L 195.082031 57.746094 L 249.140625 3.6875 L 257.625 12.175781 " fill-opacity="1" fill-rule="nonzero"/></g></g><g clip-path="url(#id35)"><g clip-path="url(#id36)"><path fill="#46bd87" d="M 271.863281 26.414062 L 217.804688 80.472656 L 209.320312 71.988281 L 263.378906 17.929688 L 271.863281 26.414062 " fill-opacity="1" fill-rule="nonzero"/></g></g><g clip-path="url(#id37)"><g clip-path="url(#id38)"><path fill="#46bd87" d="M 286.417969 40.964844 L 232.359375 95.027344 L 223.871094 86.539062 L 277.929688 32.480469 L 286.417969 40.964844 " fill-opacity="1" fill-rule="nonzero"/></g></g><g clip-path="url(#id39)"><g clip-path="url(#id40)"><path fill="#46bd87" d="M 300.28125 55.050781 L 246.222656 109.109375 L 237.738281 100.625 L 291.796875 46.566406 L 300.28125 55.050781 " fill-opacity="1" fill-rule="nonzero"/></g></g><g clip-path="url(#id41)"><g clip-path="url(#id42)"><path fill="#46bd87" d="M 121.0625 362.816406 L 175.121094 308.757812 L 183.605469 317.242188 L 129.546875 371.300781 L 121.0625 362.816406 " fill-opacity="1" fill-rule="nonzero"/></g></g><g clip-path="url(#id43)"><g clip-path="url(#id44)"><path fill="#46bd87" d="M 106.824219 348.578125 L 160.882812 294.519531 L 169.367188 303.003906 L 115.308594 357.0625 L 106.824219 348.578125 " fill-opacity="1" fill-rule="nonzero"/></g></g><g clip-path="url(#id45)"><g clip-path="url(#id46)"><path fill="#46bd87" d="M 92.269531 334.023438 L 146.328125 279.964844 L 154.8125 288.449219 L 100.753906 342.507812 L 92.269531 334.023438 " fill-opacity="1" fill-rule="nonzero"/></g></g><g clip-path="url(#id47)"><g clip-path="url(#id48)"><path fill="#46bd87" d="M 77.964844 319.941406 L 132.023438 265.882812 L 140.511719 274.367188 L 86.453125 328.425781 L 77.964844 319.941406 " fill-opacity="1" fill-rule="nonzero"/></g></g><g clip-path="url(#id49)"><g clip-path="url(#id50)"><path fill="#46bd87" d="M 364.664062 255.777344 L 310.605469 201.71875 L 319.089844 193.230469 L 373.148438 247.289062 L 364.664062 255.777344 " fill-opacity="1" fill-rule="nonzero"/></g></g><g clip-path="url(#id51)"><g clip-path="url(#id52)"><path fill="#46bd87" d="M 350.425781 270.015625 L 296.367188 215.957031 L 304.851562 207.472656 L 358.910156 261.53125 L 350.425781 270.015625 " fill-opacity="1" fill-rule="nonzero"/></g></g><g clip-path="url(#id53)"><g clip-path="url(#id54)"><path fill="#46bd87" d="M 335.871094 284.570312 L 281.8125 230.511719 L 290.296875 222.023438 L 344.359375 276.082031 L 335.871094 284.570312 " fill-opacity="1" fill-rule="nonzero"/></g></g><g clip-path="url(#id55)"><g clip-path="url(#id56)"><path fill="#46bd87" d="M 321.566406 298.652344 L 267.507812 244.59375 L 275.996094 236.109375 L 330.054688 290.167969 L 321.566406 298.652344 " fill-opacity="1" fill-rule="nonzero"/></g></g><g clip-path="url(#id57)"><g clip-path="url(#id58)"><path fill="#46bd87" d="M 14.023438 119.214844 L 68.082031 173.273438 L 59.597656 181.757812 L 5.535156 127.699219 L 14.023438 119.214844 " fill-opacity="1" fill-rule="nonzero"/></g></g><g clip-path="url(#id59)"><g clip-path="url(#id60)"><path fill="#46bd87" d="M 28.261719 104.976562 L 82.320312 159.035156 L 73.835938 167.519531 L 19.777344 113.460938 L 28.261719 104.976562 " fill-opacity="1" fill-rule="nonzero"/></g></g><g clip-path="url(#id61)"><g clip-path="url(#id62)"><path fill="#46bd87" d="M 42.816406 90.421875 L 96.875 144.480469 L 88.386719 152.964844 L 34.328125 98.90625 L 42.816406 90.421875 " fill-opacity="1" fill-rule="nonzero"/></g></g><g clip-path="url(#id63)"><g clip-path="url(#id64)"><path fill="#46bd87" d="M 56.679688 76.335938 L 110.738281 130.398438 L 102.253906 138.882812 L 48.195312 84.824219 L 56.679688 76.335938 " fill-opacity="1" fill-rule="nonzero"/></g></g></svg>